<?xml version="1.0" standalone="no"?><!DOCTYPE svg PUBLIC "-//W3C//DTD SVG 1.1//EN" "http://www.w3.org/Graphics/SVG/1.1/DTD/svg11.dtd"><svg t="1671787571797" class="icon" viewBox="0 0 1024 1024" version="1.1" xmlns="http://www.w3.org/2000/svg" p-id="2536" width="48" height="48" xmlns:xlink="http://www.w3.org/1999/xlink"><path d="M870.4 102.4a51.2 51.2 0 0 1 51.2 51.2v153.6a51.2 51.2 0 0 1-51.2 51.2h-153.6a51.2 51.2 0 0 1-51.2-51.2V153.6a51.2 51.2 0 0 1 51.2-51.2h153.6m0-102.4h-153.6a153.6 153.6 0 0 0-153.6 153.6v153.6a153.6 153.6 0 0 0 153.6 153.6h153.6a153.6 153.6 0 0 0 153.6-153.6V153.6a153.6 153.6 0 0 0-153.6-153.6zM307.2 102.4a51.2 51.2 0 0 1 51.2 51.2v153.6a51.2 51.2 0 0 1-51.2 51.2H153.6a51.2 51.2 0 0 1-51.2-51.2V153.6a51.2 51.2 0 0 1 51.2-51.2h153.6m0-102.4H153.6a153.6 153.6 0 0 0-153.6 153.6v153.6a153.6 153.6 0 0 0 153.6 153.6h153.6a153.6 153.6 0 0 0 153.6-153.6V153.6a153.6 153.6 0 0 0-153.6-153.6zM870.4 665.6a51.2 51.2 0 0 1 51.2 51.2v153.6a51.2 51.2 0 0 1-51.2 51.2h-153.6a51.2 51.2 0 0 1-51.2-51.2v-153.6a51.2 51.2 0 0 1 51.2-51.2h153.6m0-102.4h-153.6a153.6 153.6 0 0 0-153.6 153.6v153.6a153.6 153.6 0 0 0 153.6 153.6h153.6a153.6 153.6 0 0 0 153.6-153.6v-153.6a153.6 153.6 0 0 0-153.6-153.6zM307.2 665.6a51.2 51.2 0 0 1 51.2 51.2v153.6a51.2 51.2 0 0 1-51.2 51.2H153.6a51.2 51.2 0 0 1-51.2-51.2v-153.6a51.2 51.2 0 0 1 51.2-51.2h153.6m0-102.4H153.6a153.6 153.6 0 0 0-153.6 153.6v153.6a153.6 153.6 0 0 0 153.6 153.6h153.6a153.6 153.6 0 0 0 153.6-153.6v-153.6a153.6 153.6 0 0 0-153.6-153.6z" p-id="2537"></path></svg>