<?xml version="1.0" standalone="no"?><!DOCTYPE svg PUBLIC "-//W3C//DTD SVG 1.1//EN" "http://www.w3.org/Graphics/SVG/1.1/DTD/svg11.dtd"><svg t="1671787586329" class="icon" viewBox="0 0 1024 1024" version="1.1" xmlns="http://www.w3.org/2000/svg" p-id="2742" width="48" height="48" xmlns:xlink="http://www.w3.org/1999/xlink"><path d="M515.84 316.16a207.36 207.36 0 0 0 0 414.72 207.36 207.36 0 0 0 0-414.72z m119.552 207.36a119.808 119.808 0 1 1-119.552-119.808 120.064 120.064 0 0 1 119.552 119.808z" p-id="2743"></path><path d="M387.328 986.624a94.72 94.72 0 0 1-36.864-7.168l-7.168-3.584L204.8 896a97.28 97.28 0 0 1-36.864-97.28 159.488 159.488 0 0 0 0-74.496 161.28 161.28 0 0 0-64.256-36.608A100.352 100.352 0 0 1 38.144 614.4a658.432 658.432 0 0 1-8.704-89.6 610.56 610.56 0 0 1 8.448-89.6 99.84 99.84 0 0 1 65.792-76.8 160 160 0 0 0 64.768-36.864 153.6 153.6 0 0 0 0-72.96A96.768 96.768 0 0 1 204.8 153.6l6.656-4.608 138.496-79.872a97.28 97.28 0 0 1 102.4 16.384 159.488 159.488 0 0 0 64 37.632 155.136 155.136 0 0 0 63.232-36.864 98.048 98.048 0 0 1 102.4-17.92l7.168 3.584 138.496 80.64a98.304 98.304 0 0 1 36.864 96.768 151.808 151.808 0 0 0 0 74.24A160.512 160.512 0 0 0 926.976 358.4a99.584 99.584 0 0 1 66.048 76.8 588.8 588.8 0 0 1 8.96 89.6 606.976 606.976 0 0 1-8.704 87.808 100.864 100.864 0 0 1-65.536 76.8 155.648 155.648 0 0 0-64.768 36.608 153.6 153.6 0 0 0 0 72.96 96.768 96.768 0 0 1-35.328 97.28l-6.656 4.864-138.752 79.616a94.976 94.976 0 0 1-37.888 7.936 96.512 96.512 0 0 1-64.768-24.064 159.232 159.232 0 0 0-64-37.888 156.416 156.416 0 0 0-63.232 36.864 97.792 97.792 0 0 1-65.024 23.04z m-1.28-88.32a9.216 9.216 0 0 0 6.912-2.048c2.048-1.792 64.512-59.904 122.88-59.904S636.416 894.208 640 896a9.216 9.216 0 0 0 7.168 0l128-74.752a9.216 9.216 0 0 0 1.792-7.424s-19.712-85.504 9.216-135.936 105.472-73.984 114.176-76.8a10.752 10.752 0 0 0 6.144-7.68 539.136 539.136 0 0 0 7.168-71.936 548.352 548.352 0 0 0-7.424-73.472 10.496 10.496 0 0 0-6.912-6.656s-84.224-25.6-113.152-76.8-9.984-130.816-9.216-134.144a8.448 8.448 0 0 0-2.304-6.912l-129.28-74.752a9.216 9.216 0 0 0-6.912 2.048c-2.048 1.792-64.512 59.904-122.88 59.904s-116.48-54.272-123.392-60.416a8.448 8.448 0 0 0-6.912 0L256 223.744a9.472 9.472 0 0 0-1.536 6.656s19.712 85.76-9.472 135.936-105.216 73.984-114.176 76.8a11.008 11.008 0 0 0-5.888 7.68 522.752 522.752 0 0 0-7.168 71.936 537.6 537.6 0 0 0 7.424 73.472 10.496 10.496 0 0 0 6.912 6.656c2.304 0 84.224 25.6 112.896 76.8s10.24 133.376 9.216 136.96a8.704 8.704 0 0 0 2.56 6.912z" p-id="2744"></path></svg>